<svg id="Ebene_1" data-name="Ebene 1" xmlns="http://www.w3.org/2000/svg" viewBox="0 0 500 500"><defs><style>.cls-1{fill:#259f70;}.cls-2{fill:#fff;}</style></defs><g id="Ebene_2" data-name="Ebene 2"><g id="Ebene_1-2" data-name="Ebene 1-2"><circle class="cls-1" cx="250" cy="250" r="250"/></g></g><path class="cls-2" d="M278.61,177.7l-33.53,156h-35l34.5-160.81h-2.92c-25.75,0-45.67,10-45.67,49.07,0,12.39,3.16,14.33,3.41,16.52-16.77,0-26-6.07-26-23.56,0-32.31,22.84-63.16,82.84-63.16,29.39,0,38.38,5.58,62.19,5.58a78.72,78.72,0,0,0,28.17-5.1c-.48,21.14-10.93,30.85-30.36,30.85C304.36,183,291.72,180.62,278.61,177.7Z" transform="translate(-0.21)"/></svg>